<?xml version="1.0" encoding="UTF-8" standalone="no"?>
<!-- Created with Inkscape (http://www.inkscape.org/) -->

<svg
   width="200mm"
   height="200mm"
   viewBox="0 0 200 200"
   version="1.1"
   id="svg1"
   xml:space="preserve"
   inkscape:version="1.4 (86a8ad7, 2024-10-11)"
   sodipodi:docname="appicon.svg"
   inkscape:export-filename="appicon.png"
   inkscape:export-xdpi="65.024002"
   inkscape:export-ydpi="65.024002"
   xmlns:inkscape="http://www.inkscape.org/namespaces/inkscape"
   xmlns:sodipodi="http://sodipodi.sourceforge.net/DTD/sodipodi-0.dtd"
   xmlns="http://www.w3.org/2000/svg"
   xmlns:svg="http://www.w3.org/2000/svg"><sodipodi:namedview
     id="namedview1"
     pagecolor="#ffffff"
     bordercolor="#000000"
     borderopacity="0.25"
     inkscape:showpageshadow="2"
     inkscape:pageopacity="0.0"
     inkscape:pagecheckerboard="0"
     inkscape:deskcolor="#d1d1d1"
     inkscape:document-units="mm"
     inkscape:zoom="1.0556608"
     inkscape:cx="342.43955"
     inkscape:cy="543.26164"
     inkscape:window-width="2560"
     inkscape:window-height="1387"
     inkscape:window-x="1912"
     inkscape:window-y="-8"
     inkscape:window-maximized="1"
     inkscape:current-layer="layer1" /><defs
     id="defs1" /><g
     inkscape:label="Calque 1"
     inkscape:groupmode="layer"
     id="layer1"><circle
       id="path10"
       style="fill:#ffce33;stroke:#000000;stroke-width:0.264583"
       cx="272.18735"
       cy="100.75443"
       r="0.033384059" /><circle
       id="path12"
       style="fill:#ffce33;stroke:#000000;stroke-width:0.264583"
       cx="283.46582"
       cy="79.45063"
       r="0.033384059" /><circle
       id="path13"
       style="fill:#ffce33;stroke:#000000;stroke-width:0.264583"
       cx="272.68863"
       cy="87.972145"
       r="0.033384059" /><circle
       id="path14"
       style="fill:#ffce33;stroke:#000000;stroke-width:0.264583"
       cx="272.68863"
       cy="87.972145"
       r="0.033384059" /><circle
       id="path15"
       style="fill:#ffce33;stroke:#000000;stroke-width:0.264583"
       cx="278.20251"
       cy="96.243034"
       r="0.033384059" /><circle
       id="path16"
       style="fill:#ffce33;stroke:#000000;stroke-width:0.264583"
       cx="274.69366"
       cy="84.212654"
       r="0.033384059" /><circle
       id="path17"
       style="fill:#ffce33;stroke:#000000;stroke-width:0.264583"
       cx="274.69366"
       cy="84.212654"
       r="0.033384059" /><circle
       id="path18"
       style="fill:#ffce33;stroke:#000000;stroke-width:0.264583"
       cx="170.681"
       cy="14.286077"
       r="0.033384059" /><circle
       id="path19"
       style="fill:#ffce33;stroke:#000000;stroke-width:0.264583"
       cx="172.1848"
       cy="14.286077"
       r="0.033384059" /><circle
       id="path20"
       style="fill:#ffce33;stroke:#000000;stroke-width:0.264583"
       cx="191.9848"
       cy="1.5037967"
       r="0.033384059" /><circle
       id="path21"
       style="fill:#ffce33;stroke:#000000;stroke-width:0.264583"
       cx="192.73669"
       cy="0.75189692"
       r="0.033384059" /><circle
       id="path22"
       style="fill:#ffce33;stroke:#000000;stroke-width:0.264583"
       cx="192.73669"
       cy="0.75189692"
       r="0.033384059" /><circle
       id="path23"
       style="fill:#ffce33;stroke:#000000;stroke-width:0.264583"
       cx="192.73669"
       cy="0.75189692"
       r="0.033384059" /><circle
       id="path24"
       style="fill:#ffce33;stroke:#000000;stroke-width:0.264583"
       cx="192.73669"
       cy="0.75189692"
       r="0.033384059" /><circle
       id="path25"
       style="fill:#2ea071;fill-opacity:1;stroke:#000000;stroke-width:0.264583"
       cx="192.73669"
       cy="0.75189692"
       r="0.033384059" /><path
       style="fill:#62d4aa;fill-opacity:1;stroke-width:0.370605"
       d="m 112.65812,169.94825 c 7.80986,-12.6292 14.38765,-27.06273 30.29169,-34.79799 2.68795,-1.197 4.70132,-2.32848 5.39199,-3.64818 1.92849,-3.68491 1.91414,-4.52891 -2.25733,-4.11758 -2.15772,0.21277 -10.74042,5.33749 -15.72801,8.57757 -7.52189,4.88641 -13.00333,13.87785 -16.51682,21.0185 -0.61758,1.25516 -4.24358,-1.22459 -4.38182,-1.22194 -0.32413,0.006 -1.20079,-2.61159 -2.26538,-6.76447 -0.72164,-2.81502 -0.84281,-4.24942 -0.83459,-9.87948 0.008,-6.11144 0.083,-6.81839 1.02701,-9.80504 3.13733,-9.92571 9.86662,-17.36225 20.3447,-22.4829 13.98118,-6.832632 33.64116,-8.112352 54.29104,-3.53395 2.16232,0.47942 3.02121,0.87524 4.02734,1.85602 l 1.27885,1.24664 -0.2596,3.73584 c -1.45763,20.97614 -8.22795,34.82427 -21.23336,43.43103 -5.89713,3.90263 -14.76012,8.06029 -23.55339,11.6422 -10.01642,4.08015 -21.07548,5.77624 -29.62232,4.74373 z"
       id="path31"
       sodipodi:nodetypes="cssssscsccssscsssc" /><path
       style="fill:#000000;fill-opacity:0;stroke-width:0.354449"
       d="M 60.266963,160.4262 C 52.977597,159.73092 46.303102,158.60776 40.192116,157.04809 33.512051,155.34318 30.056915,154.07908 24.241934,151.21254 16.283922,147.28957 11.015554,142.5753 8.4408905,137.07337 6.6589774,133.26551 6.5911258,130.99389 6.8135133,82.589927 L 7.0131142,39.145548 7.7877761,37.043298 C 10.248013,30.366792 16.695375,24.580312 26.597205,20.161919 c 8.616712,-3.844946 17.923261,-6.202371 30.78566,-7.798255 5.978763,-0.741807 26.266925,-0.624658 32.254811,0.186245 16.233714,2.198436 28.328364,6.118458 37.412854,12.125955 3.58967,2.373815 7.9335,6.879219 9.36324,9.711505 2.18404,4.326567 2.1378,3.60812 2.1378,33.212256 v 27.015686 l -2.03808,0.564922 c -5.13062,1.422122 -12.46713,4.741206 -16.75821,7.581517 -3.0746,2.03513 -8.41618,6.60644 -9.30538,7.96352 -0.74617,1.1388 -3.17144,1.93046 -10.43152,3.40507 -19.295956,3.91923 -40.955631,3.5299 -59.471815,-1.069 -8.190672,-2.03433 -18.789178,-6.56047 -23.134953,-9.8799 -1.027425,-0.78477 -1.950826,-1.42686 -2.052003,-1.42686 -0.101176,0 -0.137816,7.06186 -0.08142,15.69301 l 0.102535,15.69301 1.189475,1.85307 c 2.142119,3.3372 5.555349,6.02339 11.361436,8.94137 16.243604,8.16361 44.129356,10.8984 68.199353,6.68839 2.304169,-0.40301 4.263342,-0.65881 4.353712,-0.56843 0.0904,0.0904 0.61697,1.85158 1.17022,3.91381 l 1.0059,3.7495 -1.81513,0.38931 c -3.187016,0.68354 -7.708909,1.40243 -12.448584,1.97908 -6.386366,0.77699 -21.616458,0.9608 -28.130143,0.3395 z m 28.648281,-52.80769 c 20.322996,-2.56127 36.056626,-9.445358 40.540216,-17.737952 0.74666,-1.380977 0.76948,-1.815878 0.87878,-16.747689 0.0617,-8.431442 -0.007,-15.329897 -0.1531,-15.329897 -0.14593,0 -1.5522,0.855697 -3.12503,1.90155 C 116.63708,66.632618 100.9036,71.130913 82.749162,72.372153 75.536014,72.86532 62.269761,72.58918 56.142297,71.818319 40.171663,69.809144 26.959631,65.585294 18.387152,59.748093 c -1.571126,-1.069816 -2.930181,-1.945121 -3.020123,-1.945121 -0.08994,0 -0.16353,6.863882 -0.16353,15.253068 v 15.253067 l 0.921974,1.819429 c 4.366702,8.617272 22.44875,15.878474 44.801877,17.991064 5.025501,0.47496 22.763035,0.15739 27.987894,-0.50109 z M 87.688207,63.613595 C 98.975578,62.38923 108.57432,59.918271 116.43104,56.214467 125.45492,51.960432 130.11443,47.213085 130.1791,42.20724 130.2473,36.929334 124.5814,31.512282 114.53486,27.250053 90.841395,17.198138 51.506249,17.570042 29.102346,28.057792 15.834564,34.268729 11.81709,41.889203 18.154727,48.823588 c 7.385629,8.081057 24.300492,13.814785 45.253764,15.339936 5.707178,0.415411 17.933114,0.138498 24.279716,-0.549929 z"
       id="path28" /><path
       style="fill:#f98c1b;fill-opacity:1;stroke-width:0.354449"
       d="M 60.266963,160.4262 C 52.977597,159.73092 46.303102,158.60776 40.192116,157.04809 33.512051,155.34318 30.056915,154.07908 24.241934,151.21254 16.283922,147.28957 11.015554,142.5753 8.4408905,137.07337 6.6589774,133.26551 6.5911258,130.99389 6.8135133,82.589927 L 7.0131142,39.145548 7.7877761,37.043298 C 10.248013,30.366792 16.695375,24.580312 26.597205,20.161919 c 8.616712,-3.844946 17.923261,-6.202371 30.78566,-7.798255 5.978763,-0.741807 26.266925,-0.624658 32.254811,0.186245 16.233714,2.198436 28.328364,6.118458 37.412854,12.125955 3.58967,2.373815 7.9335,6.879219 9.36324,9.711505 2.18404,4.326567 2.1378,3.60812 2.1378,33.212256 v 27.015686 l -2.03808,0.564922 c -5.13062,1.422122 -12.46713,4.741206 -16.75821,7.581517 -3.0746,2.03513 -8.41618,6.60644 -9.30538,7.96352 -0.74617,1.1388 -3.17144,1.93046 -10.43152,3.40507 -19.295956,3.91923 -40.955631,3.5299 -59.471815,-1.069 -8.190672,-2.03433 -18.789178,-6.56047 -23.134953,-9.8799 -1.027425,-0.78477 -1.950826,-1.42686 -2.052003,-1.42686 -0.101176,0 -0.137816,7.06186 -0.08142,15.69301 l 0.102535,15.69301 1.189475,1.85307 c 2.142119,3.3372 5.555349,6.02339 11.361436,8.94137 16.243604,8.16361 44.129356,10.8984 68.199353,6.68839 2.304169,-0.40301 4.263342,-0.65881 4.353712,-0.56843 0.0904,0.0904 0.61697,1.85158 1.17022,3.91381 l 1.0059,3.7495 -1.81513,0.38931 c -3.187016,0.68354 -7.708909,1.40243 -12.448584,1.97908 -6.386366,0.77699 -21.616458,0.9608 -28.130143,0.3395 z m 28.648281,-52.80769 c 20.322996,-2.56127 36.056626,-9.445358 40.540216,-17.737952 0.74666,-1.380977 0.76948,-1.815878 0.87878,-16.747689 0.0617,-8.431442 -0.007,-15.329897 -0.1531,-15.329897 -0.14593,0 -1.5522,0.855697 -3.12503,1.90155 C 116.63708,66.632618 100.9036,71.130913 82.749162,72.372153 75.536014,72.86532 62.269761,72.58918 56.142297,71.818319 40.171663,69.809144 26.959631,65.585294 18.387152,59.748093 c -1.571126,-1.069816 -2.930181,-1.945121 -3.020123,-1.945121 -0.08994,0 -0.16353,6.863882 -0.16353,15.253068 v 15.253067 l 0.921974,1.819429 c 4.366702,8.617272 22.44875,15.878474 44.801877,17.991064 5.025501,0.47496 22.763035,0.15739 27.987894,-0.50109 z M 87.688207,63.613595 C 98.975578,62.38923 108.57432,59.918271 116.43104,56.214467 125.45492,51.960432 130.11443,47.213085 130.1791,42.20724 130.2473,36.929334 124.5814,31.512282 114.53486,27.250053 90.841395,17.198138 51.506249,17.570042 29.102346,28.057792 15.834564,34.268729 11.81709,41.889203 18.154727,48.823588 c 7.385629,8.081057 24.300492,13.814785 45.253764,15.339936 5.707178,0.415411 17.933114,0.138498 24.279716,-0.549929 z"
       id="path29" /><circle
       id="path33"
       style="fill:#800000;stroke:#000000;stroke-width:0.264583"
       cx="46.040512"
       cy="81.019341"
       r="0.023606094" /><path
       style="fill:#ffce33;fill-opacity:1;stroke-width:0.177224"
       d="m 61.813471,108.11754 c -16.839848,-1.6965 -30.025321,-5.46532 -38.546269,-11.017728 -3.5784,-2.331749 -5.736867,-4.536959 -7.184763,-7.340354 l -0.805398,-1.559399 0.05184,-14.962333 c 0.02851,-8.229282 0.100679,-15.01113 0.160369,-15.070772 0.05969,-0.05964 1.292075,0.655849 2.738631,1.589982 3.17835,2.052457 5.596387,3.365738 8.567462,4.653145 7.70701,3.339549 16.785941,5.740172 27.220261,7.197502 4.229941,0.590783 7.202106,0.799921 13.954757,0.98193 14.47179,0.390073 25.566584,-0.695201 37.201339,-3.638968 8.41285,-2.128575 15.45796,-5.069083 21.9489,-9.161092 l 2.9242,-1.843466 0.11211,1.700734 c 0.16155,2.451079 0.15341,12.952883 -0.0165,21.284014 -0.1664,8.15815 -0.15393,8.079002 -1.60346,10.175828 -3.33126,4.818835 -11.40156,9.579377 -21.35406,12.596437 -6.92219,2.09844 -15.634985,3.73055 -22.241649,4.1664 -2.850367,0.18804 -21.715238,0.39045 -23.127764,0.24814 z M 46.306351,81.019347 c 0,-0.146209 -0.119626,-0.265835 -0.265835,-0.265835 -0.146212,0 -0.265838,0.119626 -0.265838,0.265835 0,0.146211 0.119626,0.265837 0.265838,0.265837 0.146209,0 0.265835,-0.119626 0.265835,-0.265837 z"
       id="path34" /><path
       style="fill:#ffce33;fill-opacity:1;stroke-width:0.177224"
       d="M 63.408491,64.073232 C 53.823991,63.406175 43.703856,61.512338 36.027346,58.949248 25.602073,55.468381 18.032016,50.257458 15.858503,45.065825 15.47299,44.14499 15.403698,43.709478 15.403698,42.20724 c 0,-1.526413 0.06671,-1.932027 0.480903,-2.924199 1.296731,-3.106198 4.115295,-5.938541 8.603743,-8.645808 15.722679,-9.483333 44.509726,-13.085646 70.288834,-8.795702 22.031212,3.666252 37.172092,13.129371 35.104782,21.940652 -0.98005,4.177136 -4.97181,8.022476 -12.06313,11.620635 -8.47164,4.298539 -20.456138,7.367558 -32.523149,8.328615 -6.370939,0.507399 -17.100317,0.674954 -21.88719,0.341799 z"
       id="path35" /><path
       style="fill:#ffce33;fill-opacity:1;stroke-width:0.177224"
       d="m 67.750483,152.42335 c -16.777152,-0.79673 -29.901433,-3.6611 -40.004238,-8.73093 -5.568094,-2.7942 -8.884128,-5.43984 -11.173149,-8.9143 l -1.090234,-1.65485 -0.05107,-15.44719 c -0.02809,-8.49595 0.0029,-15.50156 0.06888,-15.56799 0.06597,-0.0664 0.703978,0.30818 1.417794,0.8325 3.834545,2.81659 10.033588,5.80894 16.97187,8.19251 15.439011,5.30391 36.573116,7.07868 56.013175,4.70379 5.338865,-0.65222 12.414819,-1.96275 16.283929,-3.01593 0.71967,-0.1959 1.33726,-0.3274 1.37243,-0.29222 0.0352,0.0352 -0.26049,0.49641 -0.65703,1.02497 -1.71442,2.28518 -3.95472,6.34215 -5.11309,9.2593 -2.377876,5.98823 -3.405211,13.12606 -2.861355,19.88037 0.189836,2.35763 0.735793,6.18988 1.00361,7.04467 0.07442,0.2375 -0.0047,0.31014 -0.337675,0.31014 -0.239167,0 -2.1785,0.27646 -4.309631,0.61436 -4.264911,0.67622 -8.875249,1.21759 -12.824605,1.50592 -2.680571,0.19571 -12.406831,0.36424 -14.709611,0.25488 z"
       id="path36" /><path
       style="fill:#2ea071;fill-opacity:1;stroke-width:0.354449"
       d="m 106.36548,188.50857 c -1.77504,-0.61023 -2.23097,-1.04829 -2.88629,-2.77317 -0.5574,-1.46717 -0.54576,-1.5368 1.52082,-9.09913 l 2.08252,-7.62064 -0.85028,-1.28779 c -1.15435,-1.74832 -4.11058,-8.79204 -5.21048,-12.41486 -4.781063,-15.74776 -2.686163,-30.3964 5.99689,-41.93348 6.67581,-8.87007 17.4068,-15.534482 30.30309,-18.819532 11.7769,-2.99992 27.28169,-2.99458 41.9932,0.0145 8.49199,1.73691 11.632,3.69325 13.94947,8.691022 2.87986,6.21058 -0.43751,26.91621 -6.13986,38.32239 -5.04973,10.10075 -13.03779,18.06101 -23.29209,23.21103 -11.0583,5.55381 -25.1989,8.66583 -42.24957,9.29815 l -6.34595,0.23534 -1.53254,5.67118 c -0.8429,3.11914 -1.73411,6.05158 -1.98048,6.51654 -0.93792,1.77009 -3.36927,2.67235 -5.35845,1.9885 z m 6.90866,-20.56888 c 1.6202,-2.24189 2.7339,-3.0037 8.6711,-2.94608 0.0826,7.9e-4 1.97124,-0.26696 4.27539,-0.44279 10.4019,-0.79379 20.43705,-2.77999 27.58297,-5.45935 18.11061,-6.79057 27.52496,-19.37951 30.4829,-40.76197 0.9217,-6.66279 1.04195,-10.18945 0.3904,-11.44941 -0.8526,-1.64875 -1.69957,-2.04829 -6.45683,-3.04593 -18.43542,-3.866072 -35.62461,-2.73438 -48.65383,3.20323 -6.60572,3.01032 -13.31287,8.73572 -16.80755,14.34736 -5.3795,8.63819 -6.33844,19.81613 -2.71026,31.59209 0.58562,1.90072 1.13809,3.45587 1.22771,3.45587 0.0896,0 0.78875,-1.24464 1.55361,-2.76587 5.6961,-11.32898 15.32887,-19.81598 29.30676,-25.82086 4.48377,-1.92622 5.60653,-1.91896 7.57444,0.049 1.08894,1.08893 1.25706,1.48352 1.25706,2.95037 0,2.7278 -0.5864,3.26407 -6.99911,6.40079 -15.66084,7.66036 -21.99205,15.02783 -27.01832,31.44053 -0.71212,2.32536 -1.37394,4.46718 -1.4707,4.7596 -0.26466,0.7998 -5.46232,-1.00038 -2.20574,-5.50654 z"
       id="path30"
       sodipodi:nodetypes="ssscssssssssscsssssssssssssssssssssss" /></g></svg>
